<svg
  height="200px"
  width="200px"
  version="1.1"
  id="Capa_1"
  xmlns="http://www.w3.org/2000/svg"
  xmlns:xlink="http://www.w3.org/1999/xlink"
  viewBox="0 0 387.481 387.481"
  xml:space="preserve"
  fill="#000000"
>
  <g id="SVGRepo_bgCarrier" stroke-width="0"></g>
  <g id="SVGRepo_tracerCarrier" stroke-linecap="round" stroke-linejoin="round"></g>
  <g id="SVGRepo_iconCarrier">
    <g>
      <g id="XMLID_7_">
        <g>
          <polygon
            style="fill:#9ee5ce;"
            points="314.734,261.389 320.944,301.239 267.194,311.989 283.324,252.859"
          ></polygon>
          <polygon
            style="fill:#71d0b8;"
            points="320.944,301.239 286.904,365.729 267.194,311.989"
          ></polygon>
          <polygon
            style="fill:#bdefdc;"
            points="299.444,163.279 314.734,261.389 283.324,252.859 252.864,233.159 270.773,186.569"
          ></polygon>
          <polygon
            style="fill:#9ee5ce;"
            points="292.184,116.719 299.444,163.279 270.773,186.569 236.734,165.079 233.154,131.039"
          ></polygon>
          <polygon
            style="fill:#bdefdc;"
            points="282.664,55.609 292.184,116.719 233.154,131.039 256.444,84.449"
          ></polygon>
          <polygon
            style="fill:#bdefdc;"
            points="267.194,311.989 286.904,365.729 188.364,387.229 125.664,303.029"
          ></polygon>
          <polygon
            style="fill:#71d0b8;"
            points="283.324,252.859 267.194,311.989 125.664,303.029 138.204,98.789 224.194,57.579 256.444,84.449 233.154,131.039 236.734,165.079 270.773,186.569 252.864,233.159"
          ></polygon>
          <polygon
            style="fill:#9ee5ce;"
            points="277.944,25.329 282.664,55.609 256.444,84.449 224.194,57.579"
          ></polygon>
          <polygon
            style="fill:#71d0b8;"
            points="277.944,25.329 224.194,57.579 243.904,0.249"
          ></polygon>
          <polygon
            style="fill:#bdefdc;"
            points="243.904,0.249 224.194,57.579 138.204,98.789 174.034,18.169"
          ></polygon>
          <polygon
            style="fill:#5aaf96;"
            points="125.664,303.029 188.364,387.229 66.534,310.189"
          ></polygon>
          <polygon
            style="fill:#5aaf96;"
            points="174.034,18.169 138.204,98.789 86.244,91.619"
          ></polygon>
          <polygon
            style="fill:#34896f;"
            points="138.204,98.789 125.664,303.029 66.534,310.189 86.244,91.619"
          ></polygon>
        </g>
        <g></g>
      </g>
    </g>
  </g>
</svg>
